{"title":"Transformers Prime S02E16 720p HDTV x264 [kary].mp4","uid":7573697,"size":429002708,"categoryP":"video","categoryS":"hd___tv_shows","magnet":"?xt=urn:btih:d826cc8d45f029ba3dba3d1b2adf841a9c316444&amp;dn=Transformers+Prime+S02E16+720p+HDTV+x264+%5Bkary%5D.mp4&amp;tr=udp%3A%2F%2Ftracker.openbittorrent.com%3A80&amp;tr=udp%3A%2F%2Fopen.demonii.com%3A1337&amp;tr=udp%3A%2F%2Ftracker.coppersurfer.tk%3A6969&amp;tr=udp%3A%2F%2Fexodus.desync.com%3A6969","seeders":0,"leechers":0,"uploader":"obrany","files":-1,"time":1346060209,"description":"Format                         : MPEG-4\nFormat profile                 : Base Media\nCodec ID                       : isom\nFile size                      : 409 MiB\nDuration                       : 22mn 0s\nOverall bit rate mode          : Variable\nOverall bit rate               : 2 599 Kbps\nWriting application            : Lavf52.64.2\n\nVideo\nID                             : 1\nFormat                         : AVC\nFormat/Info                    : Advanced Video Codec\nFormat profile                 : &lt;a class=&quot;__cf_email__&quot; href=&quot;/cdn-cgi/l/email-protection&quot; data-cfemail=&quot;7f321e16113f334c514e&quot;&gt;[email&amp;#160;protected]&lt;/a&gt;&lt;script data-cfhash='f9e31' type=&quot;text/javascript&quot;&gt;\n/* &lt;![CDATA[ */!function(){try{var t=&quot;currentScript&quot;in document?document.currentScript:function(){for(var t=document.getElementsByTagName(&quot;script&quot;),e=t.length;e--;)if(t[e].getAttribute(&quot;data-cfhash&quot;))return t[e]}();if(t&amp;&amp;t.previousSibling){var e,r,n,i,c=t.previousSibling,a=c.getAttribute(&quot;data-cfemail&quot;);if(a){for(e=&quot;&quot;,r=parseInt(a.substr(0,2),16),n=2;a.length-n;n+=2)i=parseInt(a.substr(n,2),16)^r,e+=String.fromCharCode(i);e=document.createTextNode(e),c.parentNode.replaceChild(e,c)}t.parentNode.removeChild(t);}}catch(u){}}()/* ]]&gt; */&lt;/script&gt;\nFormat settings, CABAC         : Yes\nFormat settings, ReFrames      : 3 frames\nCodec ID                       : avc1\nCodec ID/Info                  : Advanced Video Coding\nDuration                       : 22mn 0s\nBit rate mode                  : Variable\nBit rate                       : 2 435 Kbps\nMaximum bit rate               : 4 000 Kbps\nWidth                          : 1 280 pixels\nHeight                         : 720 pixels\nDisplay aspect ratio           : 16:9\nFrame rate mode                : Variable\nFrame rate                     : 29.970 fps\nMinimum frame rate             : 29.970 fps\nMaximum frame rate             : 30.000 fps\nStandard                       : NTSC\nColor space                    : YUV\nChroma subsampling             : 4:2:0\nBit depth                      : 8 bits\nScan type                      : Progressive\nBits/(Pixel*Frame)             : 0.088\nStream size                    : 383 MiB (94%)\n\nAudio\nID                             : 2\nFormat                         : AAC\nFormat/Info                    : Advanced Audio Codec\nFormat profile                 : LC\nCodec ID                       : 40\nDuration                       : 22mn 0s\nDuration_LastFrame             : -21ms\nBit rate mode                  : Variable\nBit rate                       : 157 Kbps\nChannel(s)                     : 2 channels\nChannel positions              : Front: L R\nSampling rate                  : 48.0 KHz\nCompression mode               : Lossy\nStream size                    : 24.8 MiB (6%)\nLanguage                       : English\n\n","torrent":{"xt":"urn:btih:d826cc8d45f029ba3dba3d1b2adf841a9c316444","amp;dn":"Transformers+Prime+S02E16+720p+HDTV+x264+%5Bkary%5D.mp4","amp;tr":["udp%3A%2F%2Ftracker.openbittorrent.com%3A80","udp%3A%2F%2Fopen.demonii.com%3A1337","udp%3A%2F%2Ftracker.coppersurfer.tk%3A6969","udp%3A%2F%2Fexodus.desync.com%3A6969"],"infoHash":"d826cc8d45f029ba3dba3d1b2adf841a9c316444","infoHashBuffer":{"type":"Buffer","data":[216,38,204,141,69,240,41,186,61,186,61,27,42,223,132,26,156,49,100,68]},"announce":[],"urlList":[]}}